<?xml version="1.0" encoding="UTF-8"?>
<!DOCTYPE svg PUBLIC "-//W3C//DTD SVG 1.1//EN" "http://www.w3.org/Graphics/SVG/1.1/DTD/svg11.dtd">
<svg xmlns="http://www.w3.org/2000/svg" version="1.1" width="128px" height="128px" style="shape-rendering:geometricPrecision; text-rendering:geometricPrecision; image-rendering:optimizeQuality; fill-rule:evenodd; clip-rule:evenodd" xmlns:xlink="http://www.w3.org/1999/xlink">
<g><path style="opacity:0.94" fill="#ffffff" d="M 127.5,53.5 C 127.5,61.1667 127.5,68.8333 127.5,76.5C 122.009,98.8331 108.676,114.666 87.5,124C 84.4264,126.004 81.5931,125.837 79,123.5C 78.6667,115.5 78.3333,107.5 78,99.5C 77.4837,96.9664 76.317,94.7998 74.5,93C 96.0001,90.1696 105.5,78.003 103,56.5C 102.279,52.6578 100.613,49.3245 98,46.5C 99.151,40.7142 98.651,35.0476 96.5,29.5C 90.2836,29.4184 84.6169,31.4184 79.5,35.5C 68.8333,32.8333 58.1667,32.8333 47.5,35.5C 42.4051,31.6106 36.7384,29.4439 30.5,29C 28.3689,34.0239 28.0355,39.1906 29.5,44.5C 22.0717,56.1192 21.5717,68.1192 28,80.5C 34.422,87.8769 42.5886,92.0435 52.5,93C 50.3119,95.7096 48.6452,98.7096 47.5,102C 42.3138,104.226 37.3138,103.893 32.5,101C 29.8333,98 27.1667,95 24.5,92C 16.2111,89.4051 15.5444,90.5718 22.5,95.5C 24.7924,99.9211 27.4591,104.088 30.5,108C 36.1698,111.334 42.1698,112.168 48.5,110.5C 48.6655,114.514 48.4988,118.514 48,122.5C 47.5917,124.41 46.4251,125.41 44.5,125.5C 20.1119,117.683 5.11188,101.349 -0.5,76.5C -0.5,68.8333 -0.5,61.1667 -0.5,53.5C 8.45241,21.2367 29.7857,3.90334 63.5,1.5C 97.2106,3.89904 118.544,21.2324 127.5,53.5 Z"/></g>
</svg>
