<?xml version="1.0" encoding="UTF-8"?>
<!DOCTYPE svg PUBLIC "-//W3C//DTD SVG 1.1//EN" "http://www.w3.org/Graphics/SVG/1.1/DTD/svg11.dtd">
<svg xmlns="http://www.w3.org/2000/svg" version="1.1" width="128px" height="128px" style="shape-rendering:geometricPrecision; text-rendering:geometricPrecision; image-rendering:optimizeQuality; fill-rule:evenodd; clip-rule:evenodd" xmlns:xlink="http://www.w3.org/1999/xlink">
<g><path style="opacity:0.947" fill="#333333" d="M 14.5,25.5 C 17.5184,25.3354 20.5184,25.502 23.5,26C 37.2597,37.2915 51.093,48.4581 65,59.5C 78.2413,48.4566 91.4079,37.29 104.5,26C 110.581,24.1419 115.081,25.9752 118,31.5C 118.667,52.8333 118.667,74.1667 118,95.5C 114.828,101.073 109.995,103.073 103.5,101.5C 103.667,84.1635 103.5,66.8301 103,49.5C 90.2593,60.0757 77.0927,70.0757 63.5,79.5C 49.8562,69.0238 36.3562,58.3571 23,47.5C 22.5001,65.4969 22.3334,83.4969 22.5,101.5C 16.4105,102.863 11.9105,100.863 9,95.5C 8.33333,74.1667 8.33333,52.8333 9,31.5C 10.3597,28.9774 12.193,26.9774 14.5,25.5 Z"/></g>
</svg>
