<?xml version="1.0" encoding="UTF-8"?>
<!DOCTYPE svg PUBLIC "-//W3C//DTD SVG 1.1//EN" "http://www.w3.org/Graphics/SVG/1.1/DTD/svg11.dtd">
<svg xmlns="http://www.w3.org/2000/svg" version="1.1" width="128px" height="128px" style="shape-rendering:geometricPrecision; text-rendering:geometricPrecision; image-rendering:optimizeQuality; fill-rule:evenodd; clip-rule:evenodd" xmlns:xlink="http://www.w3.org/1999/xlink">
<g><path style="opacity:0.985" fill="#ffffff" d="M 8.5,-0.5 C 45.1667,-0.5 81.8333,-0.5 118.5,-0.5C 119.987,0.803551 121.654,1.97022 123.5,3C 124.697,5.01533 126.03,6.84866 127.5,8.5C 127.5,45.1667 127.5,81.8333 127.5,118.5C 126.196,119.987 125.03,121.654 124,123.5C 121.985,124.697 120.151,126.03 118.5,127.5C 81.8333,127.5 45.1667,127.5 8.5,127.5C 7.01307,126.196 5.3464,125.03 3.5,124C 2.30342,121.985 0.970083,120.151 -0.5,118.5C -0.5,81.8333 -0.5,45.1667 -0.5,8.5C 0.803551,7.01307 1.97022,5.3464 3,3.5C 5.01533,2.30342 6.84866,0.970083 8.5,-0.5 Z M 14.5,9.5 C 47.1684,9.33335 79.835,9.50002 112.5,10C 113.766,10.3095 114.933,10.8095 116,11.5C 117.146,28.7699 117.646,46.1033 117.5,63.5C 117.333,79.8333 117.167,96.1667 117,112.5C 116.691,113.766 116.191,114.933 115.5,116C 98.2301,117.146 80.8967,117.646 63.5,117.5C 47.1667,117.333 30.8333,117.167 14.5,117C 13.2341,116.691 12.0674,116.191 11,115.5C 9.35437,81.8939 9.02104,48.2272 10,14.5C 10.3477,11.6576 11.8477,9.99095 14.5,9.5 Z"/></g>
<g><path style="opacity:0.899" fill="#ffffff" d="M 26.5,20.5 C 40.6992,20.0665 44.6992,26.2332 38.5,39C 31.0079,43.3693 25.1745,41.8693 21,34.5C 19.268,28.3137 21.1014,23.647 26.5,20.5 Z"/></g>
<g><path style="opacity:0.957" fill="#ffffff" d="M 77.5,47.5 C 84.8773,46.6893 91.8773,47.856 98.5,51C 102.399,55.0214 104.566,59.8547 105,65.5C 105.5,78.8292 105.667,92.1625 105.5,105.5C 99.5,105.5 93.5,105.5 87.5,105.5C 87.6665,94.495 87.4998,83.495 87,72.5C 85.5372,63.6181 80.7038,61.1181 72.5,65C 70.5125,66.3189 69.3459,68.1523 69,70.5C 67.6682,82.1237 67.1682,93.7903 67.5,105.5C 61.8333,105.5 56.1667,105.5 50.5,105.5C 50.5,86.5 50.5,67.5 50.5,48.5C 56.1667,48.5 61.8333,48.5 67.5,48.5C 67.3379,50.5273 67.5045,52.5273 68,54.5C 70.529,51.1151 73.6956,48.7818 77.5,47.5 Z"/></g>
<g><path style="opacity:0.913" fill="#ffffff" d="M 21.5,48.5 C 27.8333,48.5 34.1667,48.5 40.5,48.5C 40.5,67.5 40.5,86.5 40.5,105.5C 34.1667,105.5 27.8333,105.5 21.5,105.5C 21.5,86.5 21.5,67.5 21.5,48.5 Z"/></g>
</svg>
